<svg xmlns="http://www.w3.org/2000/svg">
    <defs>
        <symbol id="fitbit-icon" viewBox="0 0 50 50">
            <path d="M 22 0.98242188 C 19.802706 0.98242188 18 2.7851275 18 4.9824219 C 18 7.1797162 19.802706 8.9824219 22 8.9824219 C 24.197294 8.9824219 26 7.1797162 26 4.9824219 C 26 2.7851275 24.197294 0.98242188 22 0.98242188 z M 32.494141 10 C 30.022692 9.9999999 28 12.027335 28 14.5 C 28 16.972665 30.022692 19 32.494141 19 C 34.965589 19 36.990234 16.972665 36.990234 14.5 C 36.990234 12.027335 34.965589 9.9999999 32.494141 10 z M 22.003906 10.5 C 19.808099 10.5 18.007814 12.303426 18.007812 14.5 C 18.007812 16.696574 19.808099 18.5 22.003906 18.5 C 24.199713 18.5 26 16.696574 26 14.5 C 26 12.303426 24.199713 10.5 22.003906 10.5 z M 13 12 C 11.35499 12 10 13.35499 10 15 C 10 16.64501 11.35499 18 13 18 C 14.64501 18 16 16.64501 16 15 C 16 13.35499 14.64501 12 13 12 z M 43.992188 20.001953 C 41.245662 20.001953 39 22.251784 39 25 C 39 27.748216 41.245662 29.998047 43.992188 29.998047 C 46.738712 29.998047 48.986328 27.748216 48.986328 25 C 48.986328 22.251784 46.738711 20.001953 43.992188 20.001953 z M 32.494141 20.5 C 30.022692 20.5 28 22.527335 28 25 C 28 27.472665 30.022692 29.5 32.494141 29.5 C 34.965589 29.5 36.990234 27.472665 36.990234 25 C 36.990234 22.527335 34.965589 20.5 32.494141 20.5 z M 22.005859 21 C 19.810053 21 18.009766 22.803426 18.009766 25 C 18.009766 27.196574 19.810053 29 22.005859 29 C 24.201666 29 26.001953 27.196574 26.001953 25 C 26.001953 22.803426 24.201666 21 22.005859 21 z M 5 22 C 3.3549904 22 2 23.35499 2 25 C 2 26.64501 3.3549904 28 5 28 C 6.6450096 28 8 26.64501 8 25 C 8 23.35499 6.6450096 22 5 22 z M 13 22 C 11.35499 22 10 23.35499 10 25 C 10 26.64501 11.35499 28 13 28 C 14.64501 28 16 26.64501 16 25 C 16 23.35499 14.64501 22 13 22 z M 32.494141 31 C 30.022692 31 28 33.027335 28 35.5 C 28 37.972665 30.022692 40 32.494141 40 C 34.965589 40 36.990234 37.972665 36.990234 35.5 C 36.990234 33.027335 34.965589 31 32.494141 31 z M 22.003906 31.5 C 19.808099 31.5 18.007814 33.303426 18.007812 35.5 C 18.007812 37.696574 19.808099 39.5 22.003906 39.5 C 24.199713 39.5 26 37.696574 26 35.5 C 26 33.303426 24.199713 31.5 22.003906 31.5 z M 13.003906 32 C 11.359742 32 10.005859 33.355801 10.005859 35 C 10.005859 36.644199 11.359742 38 13.003906 38 C 14.648071 38 16 36.644199 16 35 C 16 33.355801 14.648071 32 13.003906 32 z M 22.003906 41 C 19.802255 41 18 42.813029 18 45.017578 C 18.000001 47.222127 19.802256 49.035156 22.003906 49.035156 C 24.205556 49.035156 26.005859 47.222127 26.005859 45.017578 C 26.005859 42.813029 24.205557 41 22.003906 41 z"></path>
        </symbol>
        <symbol id="error-icon" viewBox="0 0 24 24">
            <path d="m2.095 19.886 9.248-16.5c.133-.237.384-.384.657-.384.272 0 .524.147.656.384l9.248 16.5c.064.115.096.241.096.367 0 .385-.309.749-.752.749h-18.496c-.44 0-.752-.36-.752-.749 0-.126.031-.252.095-.367zm1.935-.384h15.939l-7.97-14.219zm7.972-6.497c-.414 0-.75.336-.75.75v3.5c0 .414.336.75.75.75s.75-.336.75-.75v-3.5c0-.414-.336-.75-.75-.75zm-.002-3c.552 0 1 .448 1 1s-.448 1-1 1-1-.448-1-1 .448-1 1-1z" fill-rule="nonzero"></path>
        </symbol>
        <symbol id="success-icon" clip-rule="evenodd" fill-rule="evenodd" stroke-linejoin="round" stroke-miterlimit="2" viewBox="0 0 24 24">
            <path d="m11.998 2.005c5.517 0 9.997 4.48 9.997 9.997 0 5.518-4.48 9.998-9.997 9.998-5.518 0-9.998-4.48-9.998-9.998 0-5.517 4.48-9.997 9.998-9.997zm0 1.5c-4.69 0-8.498 3.807-8.498 8.497s3.808 8.498 8.498 8.498 8.497-3.808 8.497-8.498-3.807-8.497-8.497-8.497zm-5.049 8.886 3.851 3.43c.142.128.321.19.499.19.202 0 .405-.081.552-.242l5.953-6.509c.131-.143.196-.323.196-.502 0-.41-.331-.747-.748-.747-.204 0-.405.082-.554.243l-5.453 5.962-3.298-2.938c-.144-.127-.321-.19-.499-.19-.415 0-.748.335-.748.746 0 .205.084.409.249.557z" fill-rule="nonzero" ></path>
        </symbol>
        <symbol id="settings-icon" viewBox="0 0 24 24">
            <path d="M24 14.187v-4.374c-2.148-.766-2.726-.802-3.027-1.529-.303-.729.083-1.169 1.059-3.223l-3.093-3.093c-2.026.963-2.488 1.364-3.224 1.059-.727-.302-.768-.889-1.527-3.027h-4.375c-.764 2.144-.8 2.725-1.529 3.027-.752.313-1.203-.1-3.223-1.059l-3.093 3.093c.977 2.055 1.362 2.493 1.059 3.224-.302.727-.881.764-3.027 1.528v4.375c2.139.76 2.725.8 3.027 1.528.304.734-.081 1.167-1.059 3.223l3.093 3.093c1.999-.95 2.47-1.373 3.223-1.059.728.302.764.88 1.529 3.027h4.374c.758-2.131.799-2.723 1.537-3.031.745-.308 1.186.099 3.215 1.062l3.093-3.093c-.975-2.05-1.362-2.492-1.059-3.223.3-.726.88-.763 3.027-1.528zm-4.875.764c-.577 1.394-.068 2.458.488 3.578l-1.084 1.084c-1.093-.543-2.161-1.076-3.573-.49-1.396.581-1.79 1.693-2.188 2.877h-1.534c-.398-1.185-.791-2.297-2.183-2.875-1.419-.588-2.507-.045-3.579.488l-1.083-1.084c.557-1.118 1.066-2.18.487-3.58-.579-1.391-1.691-1.784-2.876-2.182v-1.533c1.185-.398 2.297-.791 2.875-2.184.578-1.394.068-2.459-.488-3.579l1.084-1.084c1.082.538 2.162 1.077 3.58.488 1.392-.577 1.785-1.69 2.183-2.875h1.534c.398 1.185.792 2.297 2.184 2.875 1.419.588 2.506.045 3.579-.488l1.084 1.084c-.556 1.121-1.065 2.187-.488 3.58.577 1.391 1.689 1.784 2.875 2.183v1.534c-1.188.398-2.302.791-2.877 2.183zm-7.125-5.951c1.654 0 3 1.346 3 3s-1.346 3-3 3-3-1.346-3-3 1.346-3 3-3zm0-2c-2.762 0-5 2.238-5 5s2.238 5 5 5 5-2.238 5-5-2.238-5-5-5z"/>
        </symbol>
        <symbol id="logout-icon" viewBox="0 0 512 512">
            <path d="M304 336v40a40 40 0 01-40 40H104a40 40 0 01-40-40V136a40 40 0 0140-40h152c22.09 0 48 17.91 48 40v40M368 336l80-80-80-80M176 256h256" fill="none" stroke="currentColor" stroke-linecap="round" stroke-linejoin="round" stroke-width="32"/>
        </symbol>
        <symbol id="footsteps-icon" viewBox="0 0 512 512">
            <path d="M133.83 361.27c-22.61 0-41-8.17-54.79-24.39s-22.84-40.29-28.11-75.31c-7.76-51.61-.06-95.11 21.68-122.48 12.8-16.12 29.6-25.44 48.58-26.94 16.25-1.3 40.54 5.29 64 44 14.69 24.24 25.86 56.44 30.65 88.34 5.79 38.51 1.48 66.86-13.18 86.65-11.64 15.72-29.54 25.46-53.21 29a106.46 106.46 0 01-15.62 1.13zM173 496c-13.21 0-26.6-4.23-38.66-12.36a79.79 79.79 0 01-33.52-50.6c-2.85-14.66-1.14-26.31 5.22-35.64 10.33-15.15 28.87-18.56 48.49-22.18 2.07-.38 4.17-.76 6.3-1.17 4.52-.86 9.14-2 13.62-3.11 16.78-4.14 34.14-8.43 48.47 1.75 9.59 6.8 15 18.36 16.62 35.32 1.84 19.57-2.36 39.1-11.83 55-10.19 17.11-25.47 28.42-43 31.86A61 61 0 01173 496zM378.17 265.27a106.69 106.69 0 01-15.6-1.2c-23.66-3.5-41.56-13.25-53.2-29-14.66-19.79-19-48.13-13.18-86.65 4.79-31.93 15.93-64.1 30.55-88.25 23.34-38.57 47.66-45.26 64-44.08 18.92 1.38 35.69 10.57 48.51 26.6 21.89 27.37 29.65 71 21.86 122.84-5.27 35-14.2 58.95-28.11 75.31s-32.22 24.43-54.83 24.43zM339 400a61 61 0 01-11.68-1.13c-17.56-3.44-32.84-14.75-43-31.86-9.47-15.9-13.67-35.43-11.83-55 1.6-17 7-28.52 16.62-35.33 14.33-10.17 31.69-5.89 48.47-1.74 4.48 1.1 9.1 2.24 13.62 3.11l6.29 1.17c19.63 3.61 38.17 7 48.5 22.17 6.36 9.33 8.07 21 5.22 35.64a79.78 79.78 0 01-33.52 50.61C365.56 395.78 352.17 400 339 400z"/>
        </symbol>
        <symbol id="calories-icon" viewBox="0 0 512 512">
            <path d="M394.23 197.56a300.43 300.43 0 00-53.37-90C301.2 61.65 249.05 32 208 32a16 16 0 00-15.48 20c13.87 53-14.88 97.07-45.31 143.72C122 234.36 96 274.27 96 320c0 88.22 71.78 160 160 160s160-71.78 160-160c0-43.3-7.32-84.49-21.77-122.44zm-105.9 221.13C278 429.69 265.05 432 256 432s-22-2.31-32.33-13.31S208 390.24 208 368c0-25.14 8.82-44.28 17.34-62.78 4.95-10.74 10-21.67 13-33.37a8 8 0 0112.49-4.51A126.48 126.48 0 01275 292c18.17 24 29 52.42 29 76 0 22.24-5.42 39.77-15.67 50.69z"/>
        </symbol>
        <symbol id="distance-icon" viewBox="0 0 24 24">
             <path d="M12 0c-4.198 0-8 3.403-8 7.602 0 4.198 3.469 9.21 8 16.398 4.531-7.188 8-12.2 8-16.398 0-4.199-3.801-7.602-8-7.602zm0 11c-1.657 0-3-1.343-3-3s1.343-3 3-3 3 1.343 3 3-1.343 3-3 3z"/>
        </symbol>
        <symbol id="stairs-icon" viewBox="0 0 512 512">
            <style type="text/css">
                .st0{fill:"#d6dfd8";}
            </style>
            <g>
                <polygon class="st0" points="354.38,53.422 354.38,168.726 226.378,168.726 226.378,284.03 98.38,284.03 98.38,399.334 0,399.334 
                 0,458.578 157.62,458.578 157.62,343.274 285.622,343.274 285.622,227.97 413.625,227.97 413.625,112.666 512,112.666 512,53.422"/>
            </g>
        </symbol>
        <symbol id="energy-icon" viewBox="0 0 24 24">
            <path d="M8 24l3-9h-9l14-15-3 9h9l-14 15z"/>
        </symbol>
        <symbol id="happy-icon" viewBox="0 0 501.333 501.333">
            <g>
                <g>
                    <path fill="#d6dfd8" d="M250.667,0C112,0,0,112,0,250.667s112,250.667,250.667,250.667s250.667-112,250.667-250.667S389.333,0,250.667,0z M250.667,459.733c-115.2,0-209.067-93.867-209.067-209.067S135.467,41.6,250.667,41.6s209.067,93.867,209.067,209.067S365.867,459.733,250.667,459.733z"/>
                </g>
            </g>
            <g>
                <g>
                    <path fill="#d6dfd8" d="M168.533,155.733c-11.733,0-21.333,9.6-21.333,21.333v5.333c0,11.733,9.6,21.333,21.333,21.333s21.333-9.6,21.333-21.333v-5.333C189.867,165.333,180.267,155.733,168.533,155.733z"/>
                </g>
            </g>
            <g>
                <g>
                    <path fill="#d6dfd8" d="M332.8,155.733c-11.733,0-21.333,9.6-21.333,21.333v5.333c0,11.733,9.6,21.333,21.333,21.333s21.333-9.6,21.333-21.333v-5.333C354.133,165.333,344.533,155.733,332.8,155.733z"/>
                </g>
            </g>
            <g>
                <g>
                    <path fill="#d6dfd8" d="M373.333,281.6c-8.533-8.533-21.333-8.533-29.867,0c-51.2,51.2-133.333,51.2-184.533,0c-8.533-8.533-21.333-8.533-29.867,0s-8.533,21.333,0,29.867c33.067,33.067,77.867,50.133,121.6,50.133s88.533-16,122.667-50.133C381.867,302.933,381.867,290.133,373.333,281.6z"/>
                </g>
            </g>
        </symbol>
        <symbol id="left-arrow-icon" viewBox="0 0 512 512">
            <path fill="none" stroke="currentColor" stroke-linecap="round" stroke-linejoin="round" stroke-width="48" d="M328 112L184 256l144 144"/>
        </symbol>
        <symbol id="right-arrow-icon" viewBox="0 0 512 512">
             <path fill="none" stroke="currentColor" stroke-linecap="round" stroke-linejoin="round" stroke-width="48" d="M184 112l144 144-144 144"/>
        </symbol>
        <symbol id="heart-icon" viewBox="0 0 24 24" xmlns="http://www.w3.org/2000/svg">
            <path d="m12 5.72c-2.624-4.517-10-3.198-10 2.461 0 3.725 4.345 7.727 9.303 12.54.194.189.446.283.697.283s.503-.094.697-.283c4.977-4.831 9.303-8.814 9.303-12.54 0-5.678-7.396-6.944-10-2.461z"/>
        </symbol>
        <symbol id="time-icon" viewBox="0 0 24 24" xmlns="http://www.w3.org/2000/svg">
            <path d="M12 0c-6.627 0-12 5.373-12 12s5.373 12 12 12 12-5.373 12-12-5.373-12-12-12zm7 14h-8v-9h2v7h6v2z"/>
        </symbol>
        <symbol id="right-arrow-pagination-icon" viewBox="0 0 24 24" xmlns="http://www.w3.org/2000/svg">
            <path d="m14.523 18.787s4.501-4.505 6.255-6.26c.146-.146.219-.338.219-.53s-.073-.383-.219-.53c-1.753-1.754-6.255-6.258-6.255-6.258-.144-.145-.334-.217-.524-.217-.193 0-.385.074-.532.221-.293.292-.295.766-.004 1.056l4.978 4.978h-14.692c-.414 0-.75.336-.75.75s.336.75.75.75h14.692l-4.979 4.979c-.289.289-.286.762.006 1.054.148.148.341.222.533.222.19 0 .378-.072.522-.215z" fill-rule="nonzero"/>
        </symbol>
        <symbol id="left-arrow-pagination-icon" viewBox="0 0 24 24" xmlns="http://www.w3.org/2000/svg">
            <path d="m9.474 5.209s-4.501 4.505-6.254 6.259c-.147.146-.22.338-.22.53s.073.384.22.53c1.752 1.754 6.252 6.257 6.252 6.257.145.145.336.217.527.217.191-.001.383-.074.53-.221.293-.293.294-.766.004-1.057l-4.976-4.976h14.692c.414 0 .75-.336.75-.75s-.336-.75-.75-.75h-14.692l4.978-4.979c.289-.289.287-.761-.006-1.054-.147-.147-.339-.221-.53-.221-.191-.001-.38.071-.525.215z" fill-rule="nonzero"/>
        </symbol>
        <!-- <symbol id="icon-loader" viewBox="0 0 24 24">
            <path d="M11 2v4c0 0.552 0.448 1 1 1s1-0.448 1-1v-4c0-0.552-0.448-1-1-1s-1 0.448-1 1zM11 18v4c0 0.552 0.448 1 1 1s1-0.448 1-1v-4c0-0.552-0.448-1-1-1s-1 0.448-1 1zM4.223 5.637l2.83 2.83c0.391 0.391 1.024 0.391 1.414 0s0.391-1.024 0-1.414l-2.83-2.83c-0.391-0.391-1.024-0.391-1.414 0s-0.391 1.024 0 1.414zM15.533 16.947l2.83 2.83c0.391 0.391 1.024 0.391 1.414 0s0.391-1.024 0-1.414l-2.83-2.83c-0.391-0.391-1.024-0.391-1.414 0s-0.391 1.024 0 1.414zM2 13h4c0.552 0 1-0.448 1-1s-0.448-1-1-1h-4c-0.552 0-1 0.448-1 1s0.448 1 1 1zM18 13h4c0.552 0 1-0.448 1-1s-0.448-1-1-1h-4c-0.552 0-1 0.448-1 1s0.448 1 1 1zM5.637 19.777l2.83-2.83c0.391-0.391 0.391-1.024 0-1.414s-1.024-0.391-1.414 0l-2.83 2.83c-0.391 0.391-0.391 1.024 0 1.414s1.024 0.391 1.414 0zM16.947 8.467l2.83-2.83c0.391-0.391 0.391-1.024 0-1.414s-1.024-0.391-1.414 0l-2.83 2.83c-0.391 0.391-0.391 1.024 0 1.414s1.024 0.391 1.414 0z"></path>
        </symbol> -->
        <symbol id="icon-loader" viewBox="0 0 256 256" xmlns="http://www.w3.org/2000/svg">
            <path d="M232,128a104,104,0,0,1-208,0c0-41,23.81-78.36,60.66-95.27a8,8,0,0,1,6.68,14.54C60.15,61.59,40,93.27,40,128a88,88,0,0,0,176,0c0-34.73-20.15-66.41-51.34-80.73a8,8,0,0,1,6.68-14.54C208.19,49.64,232,87,232,128Z"></path>
        </symbol>
        <symbol id="sad-icon" viewBox="0 0 256 256" xmlns="http://www.w3.org/2000/svg">
            <g style="stroke: none; stroke-width: 0; stroke-dasharray: none; stroke-linecap: butt; stroke-linejoin: miter; stroke-miterlimit: 10; fill: none; fill-rule: nonzero; opacity: 1;" transform="translate(1.4065934065934016 1.4065934065934016) scale(2.81 2.81)" >
                <path d="M 45 90 C 20.187 90 0 69.813 0 45 C 0 20.187 20.187 0 45 0 c 24.813 0 45 20.187 45 45 C 90 69.813 69.813 90 45 90 z M 45 4 C 22.393 4 4 22.393 4 45 s 18.393 41 41 41 s 41 -18.393 41 -41 S 67.607 4 45 4 z" style="stroke: none; stroke-width: 1; stroke-dasharray: none; stroke-linecap: butt; stroke-linejoin: miter; stroke-miterlimit: 10; fill: #d6dfd8; fill-rule: nonzero; opacity: 1;" transform=" matrix(1 0 0 1 0 0) " stroke-linecap="round" />
                <circle cx="30.344" cy="33.274" r="5.864" style="stroke: none; stroke-width: 1; stroke-dasharray: none; stroke-linecap: butt; stroke-linejoin: miter; stroke-miterlimit: 10; fill: #d6dfd8; fill-rule: nonzero; opacity: 1;" transform="  matrix(1 0 0 1 0 0) "/>
                <circle cx="59.663999999999994" cy="33.274" r="5.864" style="stroke: none; stroke-width: 1; stroke-dasharray: none; stroke-linecap: butt; stroke-linejoin: miter; stroke-miterlimit: 10; fill: #d6dfd8; fill-rule: nonzero; opacity: 1;" transform="  matrix(1 0 0 1 0 0) "/>
                <path d="M 72.181 65.49 c -0.445 0 -0.893 -0.147 -1.265 -0.451 c -7.296 -5.961 -16.5 -9.244 -25.916 -9.244 c -9.417 0 -18.62 3.283 -25.916 9.244 c -0.854 0.7 -2.115 0.572 -2.814 -0.283 c -0.699 -0.855 -0.572 -2.115 0.283 -2.814 C 24.561 55.398 34.664 51.795 45 51.795 c 10.336 0 20.438 3.604 28.447 10.146 c 0.855 0.699 0.982 1.959 0.283 2.814 C 73.335 65.239 72.76 65.49 72.181 65.49 z" style="stroke: none; stroke-width: 1; stroke-dasharray: none; stroke-linecap: butt; stroke-linejoin: miter; stroke-miterlimit: 10; fill: #d6dfd8; fill-rule: nonzero; opacity: 1;" transform=" matrix(1 0 0 1 0 0) " stroke-linecap="round" />
            </g>
        </symbol>
    </defs>
</svg>
